<svg width="34" height="29" viewBox="0 0 34 29" fill="none" xmlns="http://www.w3.org/2000/svg">
<g clip-path="url(#clip0_1_1360)">
<path d="M8.74986 15.4687C9.40077 15.4687 9.92843 15.007 9.92843 14.4375C9.92843 13.868 9.40077 13.4062 8.74986 13.4062C8.09895 13.4062 7.57129 13.868 7.57129 14.4375C7.57129 15.007 8.09895 15.4687 8.74986 15.4687Z" stroke="white" stroke-width="1.5" stroke-linecap="round" stroke-linejoin="round"/>
<path d="M16.4105 15.4687C17.0614 15.4687 17.5891 15.007 17.5891 14.4375C17.5891 13.868 17.0614 13.4062 16.4105 13.4062C15.7596 13.4062 15.2319 13.868 15.2319 14.4375C15.2319 15.007 15.7596 15.4687 16.4105 15.4687Z" stroke="white" stroke-width="1.5" stroke-linecap="round" stroke-linejoin="round"/>
<path d="M24.0714 15.4687C24.7223 15.4687 25.25 15.007 25.25 14.4375C25.25 13.868 24.7223 13.4062 24.0714 13.4062C23.4205 13.4062 22.8928 13.868 22.8928 14.4375C22.8928 15.007 23.4205 15.4687 24.0714 15.4687Z" stroke="white" stroke-width="1.5" stroke-linecap="round" stroke-linejoin="round"/>
<path d="M16.9999 1.03125C14.2285 1.03201 11.5092 1.69051 9.13162 2.93662C6.75408 4.18273 4.80733 5.96978 3.49874 8.10743C2.19014 10.2451 1.5687 12.6533 1.7006 15.0755C1.8325 17.4978 2.71281 19.8434 4.24775 21.8625L1.67847 27.8438L10.282 26.4825C12.3538 27.3683 14.6273 27.8336 16.9331 27.8436C19.2389 27.8536 21.5175 27.408 23.5992 26.5402C25.6808 25.6724 27.5117 24.4046 28.9555 22.8314C30.3992 21.2582 31.4185 19.4202 31.9374 17.4543C32.4563 15.4885 32.4614 13.4455 31.9523 11.4777C31.4432 9.50984 30.4331 7.66794 28.9972 6.08926C27.5613 4.51057 25.7367 3.23583 23.6594 2.36006C21.5822 1.48428 19.3057 1.03006 16.9999 1.03125V1.03125Z" stroke="white" stroke-width="1.5" stroke-linecap="round" stroke-linejoin="round"/>
</g>
<defs>
<clipPath id="clip0_1_1360">
<rect width="33" height="28.875" fill="white" transform="translate(0.5)"/>
</clipPath>
</defs>
</svg>
