<svg width="51" height="51" viewBox="0 0 51 51" fill="none" xmlns="http://www.w3.org/2000/svg">
<path d="M33.6965 18.2144C37.8027 18.2144 41.7406 19.8455 44.644 22.749C47.5474 25.6525 49.1786 29.5904 49.1786 33.6965C49.1885 36.7441 48.2876 39.7251 46.5922 42.2572L49.1786 49.1786L40.4722 47.6122C38.3783 48.6333 36.0811 49.1688 33.7516 49.1786C31.4221 49.1885 29.1204 48.6723 27.018 47.669C24.9156 46.6658 23.0667 45.2006 21.6091 43.3836C20.1516 41.5665 19.1228 39.4438 18.5996 37.1736C18.0764 34.9037 18.0722 32.5448 18.5874 30.273C19.1025 28.0011 20.1237 25.8748 21.5748 24.0524C23.0259 22.23 24.8695 20.7586 26.9683 19.7478C29.0671 18.737 31.367 18.2128 33.6965 18.2144Z" fill="white" stroke="white" stroke-linecap="round" stroke-linejoin="round"/>
<path d="M35.9188 9.14393C33.4655 6.02225 30.1 3.74321 26.2907 2.6241C22.4814 1.50499 18.418 1.60152 14.6661 2.90024C10.9143 4.19897 7.66074 6.63524 5.35849 9.86987C3.05627 13.1045 1.81993 16.9765 1.82162 20.9468C1.81033 24.7208 2.92662 28.4122 5.02732 31.5475L1.82162 40.0716L9.54446 38.6873" stroke="white" stroke-linecap="round" stroke-linejoin="round"/>
</svg>
