<svg width="34" height="31" viewBox="0 0 34 31" fill="none" xmlns="http://www.w3.org/2000/svg">
<path d="M12.2855 12.1428C15.2146 12.1428 17.5891 9.7683 17.5891 6.83922C17.5891 3.91013 15.2146 1.53564 12.2855 1.53564C9.35642 1.53564 6.98193 3.91013 6.98193 6.83922C6.98193 9.7683 9.35642 12.1428 12.2855 12.1428Z" stroke="white" stroke-width="1.5" stroke-linecap="round" stroke-linejoin="round"/>
<path d="M22.8928 29.8212H1.67847V27.4641C1.67847 24.6509 2.796 21.9529 4.78523 19.9637C6.77445 17.9745 9.47242 16.8569 12.2856 16.8569C15.0988 16.8569 17.7968 17.9745 19.786 19.9637C21.7752 21.9529 22.8928 24.6509 22.8928 27.4641V29.8212Z" stroke="white" stroke-width="1.5" stroke-linecap="round" stroke-linejoin="round"/>
<path d="M21.7141 1.53564C23.1207 1.53564 24.4697 2.09441 25.4643 3.08902C26.4589 4.08364 27.0177 5.43262 27.0177 6.83922C27.0177 8.24581 26.4589 9.59479 25.4643 10.5894C24.4697 11.584 23.1207 12.1428 21.7141 12.1428" stroke="white" stroke-width="1.5" stroke-linecap="round" stroke-linejoin="round"/>
<path d="M25.4856 17.3047C27.4935 18.0685 29.2221 19.424 30.4428 21.1918C31.6634 22.9596 32.3185 25.0564 32.3213 27.2047V29.8211H28.7856" stroke="white" stroke-width="1.5" stroke-linecap="round" stroke-linejoin="round"/>
</svg>
