<svg width="43" height="30" viewBox="0 0 43 30" fill="none" xmlns="http://www.w3.org/2000/svg">
<circle cx="12.5" cy="12.5" r="12.5" fill="#94AAE1" fill-opacity="0.8"/>
<circle cx="30.5" cy="17.5" r="12.5" fill="#94AAE1" fill-opacity="0.8"/>
<path d="M16.62 19.132C16.004 19.132 15.448 19.04 14.952 18.856C14.464 18.672 14.044 18.408 13.692 18.064C13.34 17.72 13.072 17.304 12.888 16.816C12.704 16.32 12.612 15.772 12.612 15.172C12.612 14.556 12.712 14 12.912 13.504C13.112 13 13.396 12.568 13.764 12.208C14.132 11.84 14.568 11.56 15.072 11.368C15.576 11.176 16.132 11.08 16.74 11.08C17.42 11.08 18.016 11.196 18.528 11.428C19.048 11.66 19.464 11.988 19.776 12.412C20.088 12.828 20.272 13.324 20.328 13.9H19.284C19.18 13.532 19.012 13.216 18.78 12.952C18.548 12.688 18.26 12.484 17.916 12.34C17.572 12.196 17.18 12.124 16.74 12.124C16.14 12.124 15.62 12.256 15.18 12.52C14.74 12.776 14.396 13.136 14.148 13.6C13.9 14.056 13.776 14.58 13.776 15.172C13.776 15.756 13.884 16.268 14.1 16.708C14.324 17.14 14.648 17.48 15.072 17.728C15.504 17.968 16.024 18.088 16.632 18.088C17.104 18.088 17.516 18.008 17.868 17.848C18.228 17.68 18.52 17.448 18.744 17.152C18.976 16.848 19.136 16.484 19.224 16.06L19.824 15.988C19.704 17.02 19.36 17.804 18.792 18.34C18.224 18.868 17.5 19.132 16.62 19.132ZM19.56 19C19.56 18.744 19.568 18.452 19.584 18.124C19.608 17.788 19.632 17.452 19.656 17.116C19.688 16.772 19.716 16.464 19.74 16.192H16.824V15.256H20.628V19H19.56ZM26.1393 19.132C25.3313 19.132 24.6113 18.968 23.9793 18.64C23.3553 18.312 22.8633 17.848 22.5033 17.248C22.1513 16.648 21.9753 15.936 21.9753 15.112C21.9753 14.28 22.1513 13.564 22.5033 12.964C22.8633 12.364 23.3553 11.9 23.9793 11.572C24.6113 11.244 25.3313 11.08 26.1393 11.08C26.9553 11.08 27.6753 11.244 28.2993 11.572C28.9233 11.9 29.4153 12.364 29.7753 12.964C30.1353 13.564 30.3153 14.28 30.3153 15.112C30.3153 15.936 30.1353 16.648 29.7753 17.248C29.4153 17.848 28.9233 18.312 28.2993 18.64C27.6753 18.968 26.9553 19.132 26.1393 19.132ZM26.1393 18.088C26.7153 18.088 27.2273 17.976 27.6753 17.752C28.1233 17.528 28.4793 17.196 28.7433 16.756C29.0073 16.316 29.1393 15.768 29.1393 15.112C29.1393 14.456 29.0073 13.908 28.7433 13.468C28.4793 13.028 28.1233 12.696 27.6753 12.472C27.2273 12.24 26.7153 12.124 26.1393 12.124C25.5793 12.124 25.0713 12.24 24.6153 12.472C24.1593 12.696 23.7993 13.028 23.5353 13.468C23.2713 13.908 23.1393 14.456 23.1393 15.112C23.1393 15.768 23.2713 16.316 23.5353 16.756C23.7993 17.196 24.1593 17.528 24.6153 17.752C25.0713 17.976 25.5793 18.088 26.1393 18.088Z" fill="white"/>
</svg>
