<svg width="46" height="42" viewBox="0 0 46 42" fill="none" xmlns="http://www.w3.org/2000/svg">
<path d="M34.1667 12V32H25.8333M7.5 12V32H15.8333M25.4167 32V24.0833C25.4167 21.552 23.3646 19.5 20.8333 19.5C18.302 19.5 16.25 21.552 16.25 24.0833V32" stroke="white" stroke-width="1.5" stroke-linecap="square"/>
<path d="M4.5 14L20.75 1L37.0001 14" stroke="white" stroke-width="1.5" stroke-linecap="square"/>
<path d="M9.877 37.742H13.585V38.417H9.877V37.742ZM13.54 35.15H14.26V41H13.54V35.15ZM9.22 35.15H9.94V41H9.22V35.15ZM17.5155 41.09C17.1315 41.09 16.7715 40.997 16.4355 40.811C16.0995 40.625 15.8265 40.358 15.6165 40.01C15.4125 39.656 15.3105 39.239 15.3105 38.759C15.3105 38.279 15.4125 37.865 15.6165 37.517C15.8265 37.163 16.0995 36.89 16.4355 36.698C16.7715 36.506 17.1315 36.41 17.5155 36.41C17.8995 36.41 18.2565 36.506 18.5865 36.698C18.9225 36.89 19.1925 37.163 19.3965 37.517C19.6005 37.865 19.7025 38.279 19.7025 38.759C19.7025 39.239 19.6005 39.656 19.3965 40.01C19.1925 40.358 18.9225 40.625 18.5865 40.811C18.2565 40.997 17.8995 41.09 17.5155 41.09ZM17.5155 40.415C17.7675 40.415 18.0045 40.352 18.2265 40.226C18.4485 40.1 18.6285 39.914 18.7665 39.668C18.9105 39.416 18.9825 39.113 18.9825 38.759C18.9825 38.405 18.9105 38.105 18.7665 37.859C18.6285 37.607 18.4485 37.415 18.2265 37.283C18.0045 37.151 17.7675 37.085 17.5155 37.085C17.2635 37.085 17.0235 37.151 16.7955 37.283C16.5735 37.409 16.3905 37.598 16.2465 37.85C16.1025 38.096 16.0305 38.399 16.0305 38.759C16.0305 39.113 16.0995 39.416 16.2375 39.668C16.3815 39.914 16.5675 40.1 16.7955 40.226C17.0235 40.352 17.2635 40.415 17.5155 40.415ZM20.6163 36.5H21.3363V41H20.6163V36.5ZM22.8843 36.41C23.1243 36.41 23.3403 36.446 23.5323 36.518C23.7243 36.59 23.8863 36.695 24.0183 36.833C24.1503 36.971 24.2523 37.139 24.3243 37.337C24.3963 37.529 24.4323 37.748 24.4323 37.994V41H23.7123V38.174C23.7123 37.826 23.6313 37.565 23.4693 37.391C23.3073 37.217 23.0643 37.13 22.7403 37.13C22.4943 37.13 22.2663 37.193 22.0563 37.319C21.8463 37.445 21.6723 37.619 21.5343 37.841C21.4023 38.057 21.3213 38.309 21.2913 38.597L21.2823 38.075C21.3123 37.823 21.3723 37.595 21.4623 37.391C21.5583 37.187 21.6753 37.013 21.8133 36.869C21.9573 36.719 22.1193 36.605 22.2993 36.527C22.4853 36.449 22.6803 36.41 22.8843 36.41ZM25.9083 36.41C26.1483 36.41 26.3643 36.446 26.5563 36.518C26.7483 36.59 26.9103 36.695 27.0423 36.833C27.1743 36.971 27.2763 37.139 27.3483 37.337C27.4203 37.529 27.4563 37.748 27.4563 37.994V41H26.7363V38.174C26.7363 37.826 26.6553 37.565 26.4933 37.391C26.3313 37.217 26.0883 37.13 25.7643 37.13C25.5183 37.13 25.2903 37.193 25.0803 37.319C24.8703 37.445 24.6963 37.619 24.5583 37.841C24.4263 38.057 24.3453 38.309 24.3153 38.597L24.3063 38.075C24.3363 37.823 24.3963 37.595 24.4863 37.391C24.5823 37.187 24.6993 37.013 24.8373 36.869C24.9813 36.719 25.1433 36.605 25.3232 36.527C25.5093 36.449 25.7043 36.41 25.9083 36.41ZM31.8091 39.551H32.4841C32.4361 39.845 32.3281 40.109 32.1601 40.343C31.9981 40.571 31.7821 40.754 31.5121 40.892C31.2481 41.024 30.9421 41.09 30.5941 41.09C30.1741 41.09 29.7961 40.991 29.4601 40.793C29.1241 40.589 28.8571 40.313 28.6591 39.965C28.4671 39.611 28.3711 39.209 28.3711 38.759C28.3711 38.309 28.4641 37.907 28.6501 37.553C28.8421 37.199 29.1031 36.92 29.4331 36.716C29.7631 36.512 30.1351 36.41 30.5491 36.41C30.9871 36.41 31.3561 36.509 31.6561 36.707C31.9621 36.899 32.1871 37.184 32.3311 37.562C32.4811 37.934 32.5411 38.393 32.5111 38.939H29.0911C29.1211 39.233 29.2021 39.491 29.3341 39.713C29.4661 39.935 29.6401 40.109 29.8561 40.235C30.0721 40.355 30.3181 40.415 30.5941 40.415C30.9001 40.415 31.1581 40.337 31.3681 40.181C31.5841 40.019 31.7311 39.809 31.8091 39.551ZM30.5761 37.085C30.2041 37.085 29.8921 37.193 29.6401 37.409C29.3881 37.625 29.2201 37.919 29.1361 38.291H31.7731C31.7491 37.895 31.6201 37.595 31.3861 37.391C31.1581 37.187 30.8881 37.085 30.5761 37.085Z" fill="white"/>
</svg>
