<svg width="18" height="13" viewBox="0 0 18 13" fill="none" xmlns="http://www.w3.org/2000/svg">
<path fill-rule="evenodd" clip-rule="evenodd" d="M1.42544 2.16667C1.42544 1.76779 1.74453 1.44444 2.13816 1.44444H10.6908C11.0844 1.44444 11.4035 1.76779 11.4035 2.16667V5.33433V7.66566V10.8333C11.4035 11.2322 11.0844 11.5555 10.6908 11.5555C10.2972 11.5555 9.97807 11.8789 9.97807 12.2778C9.97807 12.6766 10.2972 13 10.6908 13C11.8717 13 12.8289 12.0299 12.8289 10.8333V9.20833L15.1793 10.1015C16.1112 10.4556 17.1053 9.75751 17.1053 8.74899V4.251C17.1053 3.24248 16.1112 2.54441 15.1793 2.89852L12.8289 3.79166V2.16667C12.8289 0.970049 11.8717 0 10.6908 0H2.13816C0.957286 0 0 0.97005 0 2.16667V7.94444C0 8.34331 0.319095 8.66666 0.712719 8.66666C1.10634 8.66666 1.42544 8.34331 1.42544 7.94444V2.16667ZM12.8289 7.66566L15.6798 8.74899V4.251L12.8289 5.33433V7.66566ZM4.98903 6.5C5.38266 6.5 5.70175 6.17665 5.70175 5.77777C5.70175 5.3789 5.38266 5.05555 4.98903 5.05555C4.59541 5.05555 4.27631 5.3789 4.27631 5.77777C4.27631 6.17665 4.59541 6.5 4.98903 6.5ZM4.98903 7.94444C6.16991 7.94444 7.12719 6.97439 7.12719 5.77777C7.12719 4.58116 6.16991 3.61111 4.98903 3.61111C3.80816 3.61111 2.85088 4.58116 2.85088 5.77777C2.85088 6.97439 3.80816 7.94444 4.98903 7.94444ZM4.1708 10.276C4.43021 10.1672 4.70825 10.1111 4.98903 10.1111C5.26982 10.1111 5.54786 10.1672 5.80727 10.276C6.06668 10.3849 6.30239 10.5445 6.50094 10.7457C6.69949 10.9469 6.85698 11.1858 6.96443 11.4486C7.07189 11.7115 7.12719 11.9932 7.12719 12.2778C7.12719 12.6767 7.44629 13 7.83991 13C8.23353 13 8.55263 12.6767 8.55263 12.2778C8.55263 11.8036 8.46045 11.334 8.28137 10.8959C8.10228 10.4577 7.83979 10.0597 7.50888 9.72434C7.17797 9.38901 6.78512 9.12302 6.35276 8.94155C5.92041 8.76007 5.45701 8.66667 4.98903 8.66667C4.52106 8.66667 4.05766 8.76007 3.6253 8.94155C3.19295 9.12302 2.8001 9.38901 2.46919 9.72434C2.13828 10.0597 1.87579 10.4577 1.6967 10.8959C1.51761 11.334 1.42544 11.8036 1.42544 12.2778C1.42544 12.6767 1.74453 13 2.13816 13C2.53178 13 2.85088 12.6767 2.85088 12.2778C2.85088 11.9932 2.90618 11.7115 3.01363 11.4486C3.12109 11.1858 3.27858 10.9469 3.47713 10.7457C3.67567 10.5445 3.91138 10.3849 4.1708 10.276Z" fill="white"/>
</svg>
