<svg width="22" height="22" viewBox="0 0 22 22" fill="none" xmlns="http://www.w3.org/2000/svg">
<path d="M7.857 7.85707C9.80973 7.85707 11.3927 6.27408 11.3927 4.32136C11.3927 2.36864 9.80973 0.785645 7.857 0.785645C5.90428 0.785645 4.32129 2.36864 4.32129 4.32136C4.32129 6.27408 5.90428 7.85707 7.857 7.85707Z" stroke="#222222" stroke-width="1.5" stroke-linecap="round" stroke-linejoin="round"/>
<path d="M7.07136 19.6427H0.785645V17.2856C0.798154 16.0878 1.11404 14.9128 1.70379 13.8702C2.29354 12.8276 3.13792 11.9516 4.15805 11.3238C5.17818 10.696 6.34078 10.337 7.53726 10.2804C8.73374 10.2237 9.92505 10.4713 10.9999 10.9999" stroke="#222222" stroke-width="1.5" stroke-linecap="round" stroke-linejoin="round"/>
<path d="M16.5 11.7856V21.2142" stroke="#222222" stroke-width="1.5" stroke-linecap="round" stroke-linejoin="round"/>
<path d="M11.7856 16.5H21.2142" stroke="#222222" stroke-width="1.5" stroke-linecap="round" stroke-linejoin="round"/>
</svg>
