<svg width="37" height="30" viewBox="0 0 37 30" fill="none" xmlns="http://www.w3.org/2000/svg">
<path d="M24.9286 28.9287V23.5716H30.0715C30.7535 23.5716 31.4075 23.3458 31.8897 22.9439C32.372 22.5421 32.6429 21.997 32.6429 21.4287V12.8573C32.6424 10.7627 31.9721 8.70604 30.701 6.89905C29.4298 5.09207 27.6037 3.60004 25.4107 2.57655C23.2177 1.55306 20.737 1.0351 18.224 1.07598C15.711 1.11685 13.2565 1.7151 11.1131 2.80913C8.96965 3.90315 7.21485 5.45343 6.02928 7.30038C4.84372 9.14732 4.27023 11.2242 4.36785 13.3172C4.46547 15.4102 5.23068 17.4437 6.5847 19.2084C7.93872 20.9731 9.83263 22.4052 12.0715 23.3573V28.9287" stroke="#94AAE1" stroke-width="1.5" stroke-linecap="round" stroke-linejoin="round"/>
</svg>
