<svg width="95" height="45" viewBox="0 0 95 45" fill="none" xmlns="http://www.w3.org/2000/svg">
<path d="M95 15C95 6.71573 88.2843 0 80 0H15.3448C7.06056 0 0.344849 6.71573 0.344849 15V30C0.344849 38.2843 7.06058 45 15.3448 45H95V15Z" fill="#EFCC50" fill-opacity="0.76"/>
<path d="M9.7 25.7H11.92C11.9733 26.1933 12.1667 26.64 12.5 27.04C12.8467 27.4267 13.3 27.7333 13.86 27.96C14.4333 28.1733 15.0867 28.28 15.82 28.28C16.4733 28.28 17.0133 28.2 17.44 28.04C17.8667 27.88 18.18 27.66 18.38 27.38C18.5933 27.0867 18.7 26.7467 18.7 26.36C18.7 25.9733 18.5733 25.6733 18.32 25.46C18.08 25.2333 17.7067 25.0467 17.2 24.9C16.6933 24.74 16.0467 24.5867 15.26 24.44C14.6067 24.32 13.9733 24.16 13.36 23.96C12.7467 23.76 12.1933 23.5067 11.7 23.2C11.22 22.8933 10.84 22.52 10.56 22.08C10.28 21.6267 10.14 21.0933 10.14 20.48C10.14 19.7867 10.3333 19.16 10.72 18.6C11.12 18.04 11.7067 17.6 12.48 17.28C13.2533 16.96 14.1933 16.8 15.3 16.8C16.9933 16.8 18.2867 17.1933 19.18 17.98C20.0733 18.7533 20.5067 19.8067 20.48 21.14H18.3C18.26 20.3 17.9533 19.6933 17.38 19.32C16.8067 18.9467 16.08 18.76 15.2 18.76C14.4133 18.76 13.7533 18.9 13.22 19.18C12.6867 19.46 12.42 19.9133 12.42 20.54C12.42 20.8067 12.48 21.04 12.6 21.24C12.7333 21.4267 12.9467 21.6 13.24 21.76C13.5333 21.9067 13.9333 22.0533 14.44 22.2C14.96 22.3333 15.5933 22.48 16.34 22.64C16.98 22.7467 17.58 22.8933 18.14 23.08C18.7 23.2667 19.1867 23.5 19.6 23.78C20.0267 24.06 20.36 24.42 20.6 24.86C20.84 25.3 20.96 25.84 20.96 26.48C20.96 27.2133 20.7733 27.8667 20.4 28.44C20.0267 29 19.4533 29.4467 18.68 29.78C17.92 30.1 16.9333 30.26 15.72 30.26C14.8 30.26 13.9933 30.1533 13.3 29.94C12.62 29.7133 12.04 29.4267 11.56 29.08C11.08 28.72 10.6933 28.3333 10.4 27.92C10.12 27.5067 9.92 27.1067 9.8 26.72C9.69333 26.32 9.66 25.98 9.7 25.7ZM31.3139 26.72H33.4539C33.3472 27.4 33.0806 28.0067 32.6539 28.54C32.2406 29.06 31.6739 29.4733 30.9539 29.78C30.2339 30.0733 29.3739 30.22 28.3739 30.22C27.2406 30.22 26.2272 30.0133 25.3339 29.6C24.4406 29.1733 23.7406 28.5733 23.2339 27.8C22.7272 27.0267 22.4739 26.1067 22.4739 25.04C22.4739 23.9867 22.7206 23.0667 23.2139 22.28C23.7072 21.4933 24.3872 20.8867 25.2539 20.46C26.1339 20.0333 27.1472 19.82 28.2939 19.82C29.4806 19.82 30.4672 20.0333 31.2539 20.46C32.0539 20.8733 32.6472 21.5 33.0339 22.34C33.4206 23.1667 33.5806 24.2133 33.5139 25.48H24.7339C24.8006 26.04 24.9806 26.5467 25.2739 27C25.5806 27.44 25.9939 27.7867 26.5139 28.04C27.0339 28.28 27.6406 28.4 28.3339 28.4C29.1072 28.4 29.7539 28.2467 30.2739 27.94C30.8072 27.6333 31.1539 27.2267 31.3139 26.72ZM28.2339 21.62C27.3272 21.62 26.5806 21.8467 25.9939 22.3C25.4072 22.74 25.0272 23.3067 24.8539 24H31.2739C31.2206 23.2533 30.9206 22.6733 30.3739 22.26C29.8272 21.8333 29.1139 21.62 28.2339 21.62ZM46.2139 26.14C46.1339 26.9933 45.8606 27.7267 45.3939 28.34C44.9272 28.9533 44.3006 29.42 43.5139 29.74C42.7406 30.06 41.8472 30.22 40.8339 30.22C39.7406 30.22 38.7472 30.02 37.8539 29.62C36.9739 29.22 36.2739 28.6333 35.7539 27.86C35.2339 27.0867 34.9739 26.1467 34.9739 25.04C34.9739 23.9333 35.2339 22.9933 35.7539 22.22C36.2739 21.4467 36.9739 20.8533 37.8539 20.44C38.7472 20.0267 39.7406 19.82 40.8339 19.82C41.8472 19.82 42.7406 19.9867 43.5139 20.32C44.2872 20.64 44.9072 21.1 45.3739 21.7C45.8406 22.3 46.1139 23.0267 46.1939 23.88H44.1539C43.9272 23.1733 43.5139 22.6267 42.9139 22.24C42.3272 21.84 41.6339 21.64 40.8339 21.64C40.1806 21.64 39.5806 21.7733 39.0339 22.04C38.4872 22.2933 38.0472 22.6733 37.7139 23.18C37.3939 23.6733 37.2339 24.2933 37.2339 25.04C37.2339 25.7733 37.3939 26.3933 37.7139 26.9C38.0472 27.4067 38.4872 27.7867 39.0339 28.04C39.5806 28.28 40.1806 28.4 40.8339 28.4C41.7139 28.4 42.4339 28.2067 42.9939 27.82C43.5672 27.42 43.9606 26.86 44.1739 26.14H46.2139ZM53.4697 30.22C52.363 30.22 51.3697 30.02 50.4897 29.62C49.6097 29.22 48.9164 28.6333 48.4097 27.86C47.903 27.0867 47.6497 26.1467 47.6497 25.04C47.6497 23.9467 47.903 23.0133 48.4097 22.24C48.9164 21.4533 49.6097 20.8533 50.4897 20.44C51.3697 20.0267 52.363 19.82 53.4697 19.82C54.5764 19.82 55.563 20.0267 56.4297 20.44C57.2964 20.8533 57.9764 21.4533 58.4697 22.24C58.9764 23.0133 59.2297 23.9467 59.2297 25.04C59.2297 26.1467 58.9764 27.0867 58.4697 27.86C57.9764 28.6333 57.2964 29.22 56.4297 29.62C55.563 30.02 54.5764 30.22 53.4697 30.22ZM53.4697 28.4C54.1097 28.4 54.6964 28.2733 55.2297 28.02C55.763 27.7667 56.183 27.3867 56.4897 26.88C56.8097 26.3733 56.9697 25.76 56.9697 25.04C56.9697 24.32 56.8097 23.7067 56.4897 23.2C56.183 22.6933 55.763 22.3067 55.2297 22.04C54.7097 21.76 54.123 21.62 53.4697 21.62C52.8164 21.62 52.223 21.7533 51.6897 22.02C51.1564 22.2867 50.723 22.6733 50.3897 23.18C50.0697 23.6867 49.9097 24.3067 49.9097 25.04C49.9097 25.76 50.0697 26.3733 50.3897 26.88C50.7097 27.3867 51.1364 27.7667 51.6697 28.02C52.2164 28.2733 52.8164 28.4 53.4697 28.4ZM61.2166 20.04H63.4366V30H61.2166V20.04ZM67.6366 19.82C68.2099 19.82 68.7366 19.9 69.2166 20.06C69.7099 20.22 70.1299 20.4667 70.4766 20.8C70.8366 21.12 71.1099 21.52 71.2966 22C71.4966 22.48 71.5966 23.0467 71.5966 23.7V30H69.3766V24.14C69.3766 23.3267 69.1766 22.7267 68.7766 22.34C68.3899 21.94 67.7766 21.74 66.9366 21.74C66.2966 21.74 65.7099 21.88 65.1766 22.16C64.6566 22.4267 64.2299 22.78 63.8966 23.22C63.5632 23.6467 63.3699 24.12 63.3166 24.64L63.2966 23.56C63.3632 23.0667 63.5099 22.6 63.7366 22.16C63.9632 21.7067 64.2632 21.3067 64.6366 20.96C65.0099 20.6 65.4499 20.32 65.9566 20.12C66.4632 19.92 67.0232 19.82 67.6366 19.82ZM78.4886 30.22C77.5686 30.22 76.7286 30 75.9686 29.56C75.2219 29.12 74.6286 28.5133 74.1886 27.74C73.7486 26.9533 73.5286 26.0533 73.5286 25.04C73.5286 24 73.7419 23.0933 74.1686 22.32C74.6086 21.5333 75.1953 20.92 75.9286 20.48C76.6753 20.04 77.5286 19.82 78.4886 19.82C79.3286 19.82 80.0353 19.96 80.6086 20.24C81.1819 20.5067 81.6353 20.88 81.9686 21.36C82.3019 21.8267 82.5419 22.3733 82.6886 23C82.8486 23.6267 82.9286 24.3067 82.9286 25.04C82.9286 25.5867 82.8486 26.1667 82.6886 26.78C82.5286 27.38 82.2753 27.94 81.9286 28.46C81.5953 28.98 81.1419 29.4067 80.5686 29.74C80.0086 30.06 79.3153 30.22 78.4886 30.22ZM79.1686 28.38C79.9153 28.38 80.5486 28.24 81.0686 27.96C81.6019 27.6667 82.0019 27.2667 82.2686 26.76C82.5486 26.2533 82.6886 25.68 82.6886 25.04C82.6886 24.3333 82.5486 23.7333 82.2686 23.24C81.9886 22.7333 81.5886 22.34 81.0686 22.06C80.5486 21.78 79.9153 21.64 79.1686 21.64C78.1019 21.64 77.2753 21.96 76.6886 22.6C76.1019 23.2267 75.8086 24.04 75.8086 25.04C75.8086 25.6933 75.9486 26.2733 76.2286 26.78C76.5219 27.2867 76.9219 27.68 77.4286 27.96C77.9353 28.24 78.5153 28.38 79.1686 28.38ZM82.6886 16.04H84.9286V30H82.8486C82.8219 29.6933 82.7886 29.3133 82.7486 28.86C82.7086 28.4067 82.6886 28 82.6886 27.64V16.04Z" fill="white"/>
</svg>
