<svg width="25" height="24" viewBox="0 0 25 24" fill="none" xmlns="http://www.w3.org/2000/svg">
<path d="M1.24023 9.19645C1.61677 8.05146 2.43217 7.10267 3.50762 6.55834C4.58289 6.01401 5.83042 5.91865 6.97597 6.29317C7.38493 6.40905 7.7732 6.58826 8.1267 6.82426C8.01227 6.41498 7.95275 5.99231 7.94967 5.56735C7.94967 4.35601 8.43087 3.19429 9.28741 2.33775C10.144 1.4812 11.3057 1 12.517 1C13.7284 1 14.8901 1.4812 15.7466 2.33775C16.6032 3.19429 17.0844 4.35601 17.0844 5.56735C17.0813 5.99231 17.0218 6.41498 16.9073 6.82426C17.2597 6.58205 17.648 6.39684 18.058 6.27547C18.6241 6.09065 19.2211 6.01913 19.8148 6.06501C20.4085 6.1109 20.9874 6.27327 21.5183 6.54287C22.0493 6.81245 22.522 7.184 22.9094 7.63625C23.2967 8.08853 23.5912 8.61266 23.7761 9.17874C23.9609 9.74483 24.0324 10.3418 23.9865 10.9355C23.9406 11.5292 23.7783 12.1081 23.5087 12.6391C23.2391 13.17 22.8675 13.6427 22.4153 14.0301C21.963 14.4175 21.4389 14.712 20.8728 14.8968C20.4582 15.0192 20.0301 15.0906 19.5982 15.1092C19.9281 15.3738 20.2253 15.677 20.4833 16.0121C20.8358 16.4919 21.0894 17.037 21.2296 17.6157C21.3697 18.1942 21.3935 18.795 21.2997 19.3829C21.2058 19.9709 20.9961 20.5343 20.6827 21.0405C20.3694 21.5468 19.9586 21.9858 19.4743 22.3321C18.4955 23.0393 17.2772 23.3319 16.084 23.1462C14.8907 22.9607 13.8189 22.3119 13.1012 21.3407C12.8522 20.9936 12.6554 20.6119 12.517 20.2077C12.3732 20.6129 12.1704 20.9946 11.9151 21.3407C11.1974 22.3119 10.1256 22.9607 8.93237 23.1462C7.73913 23.3319 6.52083 23.0393 5.54204 22.3321C5.05769 21.9858 4.64698 21.5468 4.33364 21.0405C4.02029 20.5343 3.81051 19.9709 3.71669 19.3829C3.62286 18.795 3.64658 18.1942 3.78679 17.6157C3.92682 17.037 4.18051 16.4919 4.53297 16.0121C4.79108 15.677 5.08813 15.3738 5.41812 15.1092C4.99218 15.0891 4.57015 15.0178 4.16121 14.8968C3.59401 14.716 3.06823 14.4248 2.61397 14.0399C2.15972 13.6551 1.78619 13.1842 1.51462 12.6544C1.24324 12.1246 1.07913 11.5463 1.03204 10.9528C0.984951 10.3594 1.05577 9.76246 1.24023 9.19645Z" fill="white" stroke="#94AAE1" stroke-width="1.5" stroke-linecap="round" stroke-linejoin="round"/>
</svg>
