<svg width="158" height="75" viewBox="0 0 158 75" fill="none" xmlns="http://www.w3.org/2000/svg">
<path d="M158 15C158 6.71573 151.284 0 143 0H15.2413C6.95705 0 0.241333 6.71573 0.241333 15V60C0.241333 68.2843 6.95706 75 15.2413 75H158V15Z" fill="#FF4141" fill-opacity="0.42"/>
<path d="M43.684 25.376H67.32V29.1H43.684V25.376ZM53.374 28.644H57.668V50H53.374V28.644ZM77.2463 50.418C75.1436 50.418 73.2563 50.038 71.5843 49.278C69.9123 48.518 68.595 47.4033 67.6323 45.934C66.6696 44.4647 66.1883 42.6787 66.1883 40.576C66.1883 38.4987 66.6696 36.7253 67.6323 35.256C68.595 33.7613 69.9123 32.6213 71.5843 31.836C73.2563 31.0507 75.1436 30.658 77.2463 30.658C79.349 30.658 81.2236 31.0507 82.8703 31.836C84.517 32.6213 85.809 33.7613 86.7463 35.256C87.709 36.7253 88.1903 38.4987 88.1903 40.576C88.1903 42.6787 87.709 44.4647 86.7463 45.934C85.809 47.4033 84.517 48.518 82.8703 49.278C81.2236 50.038 79.349 50.418 77.2463 50.418ZM77.2463 46.96C78.4623 46.96 79.577 46.7193 80.5903 46.238C81.6036 45.7567 82.4016 45.0347 82.9843 44.072C83.5923 43.1093 83.8963 41.944 83.8963 40.576C83.8963 39.208 83.5923 38.0427 82.9843 37.08C82.4016 36.1173 81.6036 35.3827 80.5903 34.876C79.6023 34.344 78.4876 34.078 77.2463 34.078C76.005 34.078 74.8776 34.3313 73.8643 34.838C72.851 35.3447 72.0276 36.0793 71.3943 37.042C70.7863 38.0047 70.4823 39.1827 70.4823 40.576C70.4823 41.944 70.7863 43.1093 71.3943 44.072C72.0023 45.0347 72.813 45.7567 73.8263 46.238C74.865 46.7193 76.005 46.96 77.2463 46.96ZM104.125 50.418C102.58 50.418 101.263 50.114 100.173 49.506C99.1094 48.898 98.248 48.1 97.5894 47.112C96.956 46.0987 96.4874 45.022 96.1834 43.882C95.8794 42.7167 95.7274 41.6147 95.7274 40.576C95.7274 39.1827 95.8667 37.8907 96.1454 36.7C96.4494 35.5093 96.918 34.4707 97.5514 33.584C98.21 32.672 99.0714 31.9627 100.135 31.456C101.225 30.924 102.555 30.658 104.125 30.658C105.899 30.658 107.495 31.0887 108.913 31.95C110.332 32.786 111.459 33.9513 112.295 35.446C113.131 36.9153 113.549 38.6253 113.549 40.576C113.549 42.5267 113.119 44.2493 112.257 45.744C111.421 47.2133 110.294 48.366 108.875 49.202C107.457 50.0127 105.873 50.418 104.125 50.418ZM102.871 46.922C104.138 46.922 105.253 46.656 106.215 46.124C107.178 45.592 107.925 44.8447 108.457 43.882C108.989 42.9193 109.255 41.8173 109.255 40.576C109.255 38.676 108.698 37.1307 107.583 35.94C106.469 34.724 104.898 34.116 102.871 34.116C101.605 34.116 100.465 34.382 99.4514 34.914C98.438 35.446 97.64 36.1933 97.0574 37.156C96.4747 38.0933 96.1834 39.2333 96.1834 40.576C96.1834 41.792 96.4494 42.8813 96.9814 43.844C97.5134 44.8067 98.2734 45.5667 99.2614 46.124C100.249 46.656 101.453 46.922 102.871 46.922ZM91.9654 31.076H95.9934L96.1834 35.712V57.6H91.9654V31.076Z" fill="white"/>
</svg>
