<svg width="49" height="31" viewBox="0 0 49 31" fill="none" xmlns="http://www.w3.org/2000/svg">
<path d="M7.048 9.178V7.45H0.676V0.240999H25.273V7.45H18.955V9.178H21.52L18.631 21.868H18.523L14.446 9.178H16.201V7.45H10.126V9.178H11.908L7.858 21.787H7.723L4.591 9.178H7.048ZM25.273 30.751H0.676V9.178H2.485L6.94 25H8.56L13.015 10.96H13.15L17.74 25H19.333L23.491 9.178H25.273V30.751ZM24.6174 30.751V0.240999H32.7444V30.751H24.6174ZM27.7224 7.423V9.88H29.7744V7.423H27.7224ZM25.8054 25H31.9074V23.461H29.8014V12.985H25.7514V14.524H27.9114V23.461H25.8054V25ZM32.1057 30.751V0.240999H48.1437V30.751H32.1057ZM41.5287 25H47.6037V23.461H45.5247V17.305C45.5247 15.703 45.1287 14.542 44.3367 13.822C43.5447 13.102 42.5637 12.742 41.3937 12.742C39.4497 12.742 38.0457 13.534 37.1817 15.118V12.985H33.1317V14.524H35.2917V23.461H33.1857V25H39.2877V23.461H37.1817V17.845C37.2177 16.927 37.5597 16.117 38.2077 15.415C38.8737 14.695 39.7467 14.335 40.8267 14.335C41.6367 14.335 42.3027 14.605 42.8247 15.145C43.3467 15.667 43.6077 16.576 43.6077 17.872V23.461H41.5287V25Z" fill="#EFCC50"/>
</svg>
